<svg width="411" height="476" fill="none" xmlns="http://www.w3.org/2000/svg"><circle cx="205.5" cy="205.5" r="191" stroke="#F9FAFF" stroke-width="29"/><mask id="a" fill="#fff"><path d="M318.86 371.181c7.743 1.728 15.505-3.15 16.368-11.036a129.982 129.982 0 00-27.894-95.578 129.999 129.999 0 00-230.487 96.251c.905 7.882 8.692 12.719 16.426 10.951 7.734-1.768 12.461-9.478 11.805-17.385a101.262 101.262 0 0121.653-71.408 101.268 101.268 0 01180.234 70.882c-.616 7.91 4.152 15.596 11.895 17.323z"/></mask><path d="M318.86 371.181c7.743 1.728 15.505-3.15 16.368-11.036a129.982 129.982 0 00-27.894-95.578 129.999 129.999 0 00-230.487 96.251c.905 7.882 8.692 12.719 16.426 10.951v0c7.734-1.768 12.461-9.478 11.805-17.385a101.262 101.262 0 0121.653-71.408 101.268 101.268 0 01180.234 70.882c-.616 7.91 4.152 15.596 11.895 17.323v0z" stroke="#F9FAFF" stroke-width="58" mask="url(#a)"/><mask id="b" fill="#fff"><path d="M76 351c0-12 1-17.833 1.5-24C89 338.5 94 342 105 350.602v3.898c0 14.8-10 17.833-15 17.5-12.8-.8-13.5-9.5-14-21z"/></mask><path d="M77.5 327l21.213-21.213-45.872-45.872-5.243 64.661L77.5 327zM76 351H46v.652l.028.651L76 351zm14 21l1.996-29.934-.063-.004-.062-.004L90 372zm15-21.398h30v-14.625l-11.52-9.008L105 350.602zm-57.402-26.026C47.247 328.91 46 337.385 46 351h60c0-10.385.753-13.576 1.402-21.576l-59.804-4.848zm-1.57 27.727c.172 3.958.269 16.004 5.473 26.517 3.19 6.445 8.27 12.601 15.712 17.002 7.069 4.18 14.48 5.717 20.916 6.12l3.742-59.884c.037.003 2.56.153 5.882 2.117 3.694 2.185 6.169 5.298 7.521 8.03 1.102 2.225 1.165 3.604 1.045 2.732-.119-.868-.217-2.24-.347-5.24l-59.944 2.606zm41.976 49.631c8.677.578 20.361-1.571 30.412-9.826C129.639 382.89 135 369.26 135 354.5H75c0 .319-.048-.857.802-2.832.892-2.073 2.419-4.19 4.532-5.926 3.8-3.121 7.985-3.921 11.662-3.676l-3.992 59.868zM135 354.5v-3.898H75v3.898h60zm-11.52-27.531c-11.195-8.754-14.761-11.176-24.767-21.182l-42.426 42.426c12.994 12.994 19.428 17.572 30.233 26.021l36.96-47.265z" fill="#fff" mask="url(#b)"/><mask id="c" fill="#fff"><path d="M336 350c0-12-1-17.833-1.5-24-11.5 11.5-16.5 15-27.5 23.602v3.898c0 14.8 10 17.833 15 17.5 12.8-.8 13.5-9.5 14-21z"/></mask><path d="M334.5 326l-21.213-21.213 45.872-45.872 5.243 64.661L334.5 326zm1.5 24h30v.652l-.028.651L336 350zm-14 21l-1.996-29.934.063-.004.062-.004L322 371zm-15-21.398h-30v-14.625l11.52-9.008L307 349.602zm57.402-26.026C364.753 327.91 366 336.385 366 350h-60c0-10.385-.753-13.576-1.402-21.576l59.804-4.848zm1.57 27.727c-.172 3.958-.269 16.004-5.473 26.517-3.189 6.445-8.271 12.601-15.712 17.002-7.069 4.18-14.479 5.717-20.916 6.12l-3.742-59.884c-.037.003-2.56.153-5.882 2.117-3.694 2.185-6.169 5.298-7.521 8.03-1.102 2.225-1.165 3.604-1.045 2.732.119-.868.217-2.24.347-5.24l59.944 2.606zm-41.976 49.631c-8.677.578-20.361-1.571-30.412-9.826C282.361 381.89 277 368.26 277 353.5h60c0 .319.048-.857-.802-2.832-.892-2.073-2.419-4.19-4.532-5.926-3.801-3.121-7.985-3.921-11.662-3.676l3.992 59.868zM277 353.5v-3.898h60v3.898h-60zm11.52-27.531c11.195-8.754 14.761-11.176 24.767-21.182l42.426 42.426c-12.994 12.994-19.428 17.572-30.233 26.021l-36.96-47.265z" fill="#fff" mask="url(#c)"/><circle cx="204.5" cy="142.5" r="43.5" stroke="#F9FAFF" stroke-width="28"/></svg>